# xmcd
#
# Track frame offsets: 
#        150
#        14785
#        25782
#        41845
#        55795
#        67942
#        79970
#        94307
#        108307
#        123260
#        135895
#        150962
#        165020
#        179810
#        195202
#        209165
#        224325
#        235130
#        253052
#        267835
#        281947
#
# Disc length: 3950 seconds
#
# Revision: 2
# Processed by: cddbd v1.5.2PL0 Copyright (c) Steve Scherf et al.
# Submitted via: ExactAudioCopy v0.95b4
#
DISCID=280f6c15
DTITLE=Randy Travis - Trail Of Memories: The Randy Travis Anthology - 
DTITLE=Disc 2
DYEAR=2002
DGENRE=Country
TTITLE0=Heroes And Friends (Long Single Edit)
TTITLE1=Allergic To The Blues
TTITLE2=Point Of Light
TTITLE3=Forever Together
TTITLE4=I'm Gonna Have A Little Talk
TTITLE5=Better Class Of Losers
TTITLE6=Look Heart, No Hands
TTITLE7=If I Didn't Have You
TTITLE8=Memories Of Old Santa Fe
TTITLE9=Cowboy Boogie
TTITLE10=Before You Kill Us All
TTITLE11=Whisper My Name
TTITLE12=Gonna Walk That Line
TTITLE13=This Is Me
TTITLE14=Honky Tonk Side Of Town
TTITLE15=The Box
TTITLE16=Would I
TTITLE17=Highway Junkie
TTITLE18=Stranger In My Mirror
TTITLE19=The Hole
TTITLE20=No Reason To Change
EXTD=Trail Of Memories - The Randy Travis Anthology - Disc 2 of 2\n200
EXTD=2 Warner Bros. Records, Inc. and Rhino Entertainment Company
EXTT0=
EXTT1=
EXTT2=
EXTT3=
EXTT4=
EXTT5=
EXTT6=
EXTT7=
EXTT8=
EXTT9=
EXTT10=
EXTT11=
EXTT12=
EXTT13=
EXTT14=
EXTT15=
EXTT16=
EXTT17=
EXTT18=
EXTT19=
EXTT20=
PLAYORDER=
